<svg xmlns="http://www.w3.org/2000/svg" version="1.1" xmlns:xlink="http://www.w3.org/1999/xlink" width="512" height="512" x="0" y="0" viewBox="0 0 1707 1707" style="enable-background:new 0 0 512 512" xml:space="preserve" fill-rule="evenodd" class=""><g><path fill="#e6e6e6" d="M1466 1391H132c-73 0-132-59-132-132V202C0 130 59 71 132 71h1203c72 0 131 59 131 131v1057z" opacity="1" data-original="#e6e6e6"></path><g fill="#ccc" fill-rule="nonzero"><path d="M129 702c-23 0-42-18-42-42 0-23 19-42 42-42h366c23 0 42 19 42 42 0 24-19 42-42 42zM129 862c-23 0-42-19-42-42s19-42 42-42h366c23 0 42 19 42 42s-19 42-42 42zM129 1022c-23 0-42-19-42-42 0-24 19-42 42-42h366c23 0 42 18 42 42 0 23-19 42-42 42zM129 1181c-23 0-42-19-42-42s19-42 42-42h366c23 0 42 19 42 42s-19 42-42 42z" fill="#cccccc" opacity="1" data-original="#cccccc"></path></g><path fill="#515151" d="M0 409h1466V202c0-72-59-131-131-131H132C59 71 0 130 0 202z" opacity="1" data-original="#515151"></path><circle cx="1035" cy="240" r="66" fill="#2fcc63" opacity="1" data-original="#2fcc63"></circle><circle cx="1265" cy="240" r="66" fill="#00afff" opacity="1" data-original="#00afff"></circle><circle cx="805" cy="240" r="66" fill="#e8364c" opacity="1" data-original="#e8364c" class=""></circle><path fill="#fefefe" fill-rule="nonzero" d="M136 282c-24 0-42-19-42-42s18-42 42-42h414c23 0 42 19 42 42s-19 42-42 42z" opacity="1" data-original="#fefefe"></path><path fill="#446875" d="m1302 1143 368 287c52 41 46 123 0 169s-128 52-169 0l-287-368-17-66 41-50z" opacity="1" data-original="#446875"></path><path fill="#97c5d0" d="m1430 1243-128-100c-12 17-25 33-40 48s-31 28-48 40l100 128z" opacity="1" data-original="#97c5d0"></path><circle r="698" fill="#446875" transform="rotate(-45 1644.682 -752.228) scale(.56)" opacity="1" data-original="#446875"></circle><g fill="#dffdff"><circle r="698" transform="matrix(.337 -.337 .337 .337 1013.59 942.73)" fill="#dffdff" opacity="1" data-original="#dffdff"></circle><path d="m1314 1359 116-116-51-40-105 105z" fill="#dffdff" opacity="1" data-original="#dffdff"></path></g><path fill="#b5eefc" d="M898 799c-16 16-43 16-59 0-16-17-16-43 0-60 52-52 120-78 189-78 68 0 137 26 189 78 16 17 16 43 0 60-17 16-43 16-60 0-36-36-82-54-129-54s-94 18-130 54z" opacity="1" data-original="#b5eefc"></path></g></svg>