<svg xmlns="http://www.w3.org/2000/svg" version="1.1" xmlns:xlink="http://www.w3.org/1999/xlink" width="512" height="512" x="0" y="0" viewBox="0 0 1707 1707" style="enable-background:new 0 0 512 512" xml:space="preserve" fill-rule="evenodd" class=""><g><path fill="#ffc250" d="M1100 1706H194c-74 0-135-60-135-134V334c0-74 61-134 135-134h906c74 0 134 60 134 134v1238c0 74-60 134-134 134z" opacity="1" data-original="#ffc250" class=""></path><path fill="#f5f5f5" d="M1100 1606c19 0 34-15 34-34V334c0-19-15-34-34-34H194c-19 0-35 15-35 34v1238c0 19 16 34 35 34z" opacity="1" data-original="#f5f5f5" class=""></path><path fill="#485360" d="M955 369H338c-9 0-18-5-23-13-4-9-4-19 1-27l128-213c5-8 13-13 23-13h53C533 44 585 0 647 0s114 44 126 103h54c9 0 18 5 23 13l126 210c4 5 6 10 6 17 0 14-12 26-27 26z" opacity="1" data-original="#485360"></path><path fill="#6b747e" d="M955 369H338c-9 0-18-5-23-13-4-9-4-19 1-27l6-12h649l5 9c4 5 6 10 6 17 0 14-12 26-27 26z" opacity="1" data-original="#6b747e"></path><path fill="#ffffff" d="M647 196c-32 0-59-26-59-58s27-59 59-59 58 26 58 59c0 32-26 58-58 58z" opacity="1" data-original="#ffffff"></path><g fill="#c7c7c7"><path d="M1025 581H268c-14 0-26-12-26-26 0-15 12-27 26-27h757c15 0 27 12 27 27 0 14-12 26-27 26zM1025 1388H268c-14 0-26-12-26-27 0-14 12-26 26-26h757c15 0 27 12 27 26 0 15-12 27-27 27zM1025 985H268c-14 0-26-12-26-27s12-27 26-27h757c15 0 27 12 27 27s-12 27-27 27zM729 706H268c-14 0-26-12-26-27s12-26 26-26h461c15 0 27 11 27 26s-12 27-27 27zM729 1513H268c-14 0-26-12-26-27s12-27 26-27h461c15 0 27 12 27 27s-12 27-27 27zM729 1109H268c-14 0-26-12-26-26 0-15 12-27 26-27h461c15 0 27 12 27 27 0 14-12 26-27 26z" fill="#c7c7c7" opacity="1" data-original="#c7c7c7" class=""></path></g><path fill="#ffb123" d="m948 949 368-637c7-12 23-17 36-9l213 123c13 7 17 23 10 36l-368 637z" opacity="1" data-original="#ffb123"></path><path fill="#ff901d" d="M1400 712c-60-35-80-112-46-172 35-60 112-81 172-47h1c12 7 17 23 9 36-1 2-99 172-100 174-8 12-24 17-36 9zM996 918c-12-7-17-23-9-36 1-2 99-172 100-174 7-12 24-17 36-9 60 35 80 112 46 172-35 60-112 81-172 47z" opacity="1" data-original="#ff901d" class=""></path><path fill="#ff4c4c" d="m1528 437-168-96-45-27s0-1 1-2l59-103c26-45 83-60 128-34l97 56c45 26 60 83 35 128l-60 103c0 1-1 1-1 2z" opacity="1" data-original="#ff4c4c"></path><path fill="#fed9a8" d="M946 1252c-9-5-14-15-13-25l15-278 259 150-233 152c-8 6-19 6-28 1z" opacity="1" data-original="#fed9a8"></path><path fill="#333333" d="M946 1252c-9-5-14-15-13-25l6-118c25 5 50 15 73 28 24 14 44 30 61 49l-99 65c-8 6-19 6-28 1z" opacity="1" data-original="#333333"></path></g></svg>